<svg xmlns="http://www.w3.org/2000/svg" width="70" height="76">
  <switch>
    <g>
      <path fill="inherit" d="M53.484 43.192c-4.828 0-9.401 1.9-12.45 5.447-.508.506-.381 1.266.127 1.772.508.507 1.27.38 1.779-.126 2.541-3.04 6.352-4.687 10.418-4.687 7.749 0 13.975 6.207 13.975 13.934 0 7.727-6.225 13.933-13.975 13.933-6.322 0-11.885-4.304-13.615-10.134h5.992v-2.534h-7.471a1.108 1.108 0 0 0-.406 0h-2.287v10.134h2.541v-4.544c2.661 5.65 8.615 9.61 15.245 9.61 9.147 0 16.642-7.22 16.642-16.34.001-9.118-7.367-16.465-16.515-16.465zM7.622 7.599a2.544 2.544 0 0 0-2.541 2.533v58.267a2.544 2.544 0 0 0 2.541 2.533H31.76c.762 0 1.27-.506 1.27-1.267 0-.76-.508-1.266-1.27-1.266H7.622V10.132h12.704a2.544 2.544 0 0 0 2.541 2.533h17.786a2.545 2.545 0 0 0 2.541-2.533h12.704v29.134c0 .76.508 1.267 1.27 1.267s1.27-.507 1.27-1.267V10.132a2.544 2.544 0 0 0-2.541-2.533H43.194V5.066h16.515c.762 0 1.27.506 1.27 1.266v32.934c0 .76.508 1.267 1.27 1.267s1.27-.507 1.27-1.267V6.332c0-2.153-1.652-3.8-3.811-3.8H43.194a2.544 2.544 0 0 0-2.541-2.533H22.867a2.544 2.544 0 0 0-2.541 2.533H3.811C1.651 2.532 0 4.179 0 6.332v65.866c0 2.154 1.652 3.801 3.811 3.801H31.76c.762 0 1.27-.507 1.27-1.266s-.508-1.266-1.27-1.266H3.811c-.762 0-1.27-.507-1.27-1.267V6.332c0-.76.508-1.266 1.27-1.266h16.515v2.533H7.622zm15.245-5.067h17.786v7.6H22.867v-7.6zm23.338 23.941-4.917-6.84c-.762-1.14-2.033-1.773-3.43-1.773h-5.497a1.4 1.4 0 0 0-.601-.127c-.225 0-.426.045-.601.127h-5.497c-1.397 0-2.668.633-3.43 1.773l-4.916 6.84h-2.579a3.275 3.275 0 0 0-3.303 3.293v4.94c0 1.9 1.398 3.294 3.303 3.294h1.941a5.1 5.1 0 0 0 4.92 3.8 5.1 5.1 0 0 0 4.92-3.8h10.487a5.1 5.1 0 0 0 4.92 3.8 5.1 5.1 0 0 0 4.92-3.8h1.94c1.906 0 3.303-1.394 3.43-3.294v-4.94c0-1.901-1.524-3.293-3.303-3.293h-2.707zm-13.174-6.207h4.701c.635 0 1.144.253 1.398.633l3.975 5.573H33.031v-6.206zm-8.893.633c.381-.38.889-.633 1.398-.633h4.955v6.206H20.287l3.851-5.573zm-2.541 18.367a2.545 2.545 0 0 1-2.541-2.534 2.544 2.544 0 0 1 2.541-2.533 2.544 2.544 0 0 1 2.541 2.533 2.546 2.546 0 0 1-2.541 2.534zm20.327 0a2.545 2.545 0 0 1-2.541-2.534 2.544 2.544 0 0 1 2.541-2.533 2.544 2.544 0 0 1 2.541 2.533 2.546 2.546 0 0 1-2.541 2.534zm7.749-9.5v4.94c0 .38-.381.76-.762.76h-2.033c-.635-2.154-2.287-3.8-4.701-3.8l-.138.003c-.039-.001-.077-.003-.116-.003a5.1 5.1 0 0 0-4.92 3.8H26.679c-.635-2.154-2.541-3.8-4.955-3.8l-.069.002-.058-.002a5.1 5.1 0 0 0-4.92 3.8h-1.94c-.381 0-.762-.38-.762-.76v-4.94c0-.38.381-.76.762-.76h2.478c.169.08.358.127.571.127h27.949c.213 0 .403-.047.571-.127h2.605c.381-.001.762.379.762.76zM31.76 48.132H12.704c-.762 0-1.27.507-1.27 1.267 0 .76.508 1.266 1.27 1.266H31.76c.762 0 1.27-.506 1.27-1.266.001-.759-.507-1.267-1.27-1.267zm0 6.334H12.704c-.762 0-1.27.507-1.27 1.267 0 .76.508 1.266 1.27 1.266H31.76c.762 0 1.27-.507 1.27-1.266.001-.76-.507-1.267-1.27-1.267zm0 6.333H12.704c-.762 0-1.27.507-1.27 1.267s.508 1.267 1.27 1.267H31.76c.762 0 1.27-.507 1.27-1.267s-.507-1.267-1.27-1.267z"/>
    </g>
  </switch>
</svg>
