<svg xmlns="http://www.w3.org/2000/svg" width="100" height="100" version="1.0" viewBox="0 0 1000 998">
  <g fill="inherit">
    <path d="M153 117.1c-17 3.4-32.8 19.5-36 36.8-1.5 7.8-1.4 292.3.1 299.3 2.9 13.9 12.3 26 25.3 32.3 8.7 4.3 16.3 5.5 34.9 5.5H191v83.9l4.6 19.1 4.6 19.2-4.6 37.2-4.7 37.3 4.6 18.4 4.6 18.4-4.5 18.2-4.6 18.2v39.3c0 35.8.2 39.5 1.8 42 3.4 5.2 40 40.7 42.6 41.4 1.4.3 3.6.4 4.8 0 1.3-.3 11.6-9.9 23.1-21.4l20.7-20.8v-81.2l-4-16.3c-2.2-9-4-17.8-4-19.4 0-1.7 1.8-10 4-18.5s4-17.3 4-19.5c0-2.2-2-19.6-4.4-38.8l-4.4-34.7 4.4-17.3 4.4-17.2v-87.2l18.3-.6c14.5-.4 19.5-.9 24.4-2.5 15-4.8 26.5-16.5 30.7-31.3 1.5-5 1.6-20.7 1.4-156l-.3-150.4-3.7-7.5c-5.5-11.3-15.3-20.1-27.3-24.6-4.7-1.8-9.6-1.9-87.5-2.1-45.4 0-84.5.3-87 .8zM303 210v75H172V135h131v75zm-149.2.7-.3 73.8-9.2.3-9.3.3V156.5l2.4-5c1.4-2.8 3.3-6 4.3-7.2 2.3-2.7 9.2-7.3 10.9-7.3 1.2 0 1.4 11.9 1.2 73.7zm173.2-72c4.9 3.2 8.2 6.9 10.8 11.8l2.7 5 .3 64.7.3 64.8H322v-74c0-79.5-.2-75.9 5-72.3zm-173.2 248c.2 69.6 0 83.3-1.1 83.3-2.1 0-9.2-5.4-12.1-9.2-5.8-7.7-5.6-4.3-5.6-84.3v-73.6l9.3.3 9.2.3.3 83.2zm149.2.8V472H172V303h131v84.5zm38-12.7c0 77.9.1 77-5.5 85.4-2.3 3.4-10.5 9.8-12.7 9.8-.4 0-.8-37.6-.8-83.5V303h19v71.8zM229 516.4v25.4l3.1 2.6c1.7 1.4 3.9 2.6 5 2.6 2.9 0 7.7-2.7 8.9-4.9.6-1.2 1-11.6 1-26.5V491h19v83.5l-4.7 18.7-4.8 18.6 4.7 37.5 4.6 37.4-4.4 17.4c-2.4 9.6-4.4 18.9-4.4 20.7 0 1.8 2 11.3 4.5 21.2l4.5 17.9v69.6l-14 14-14 14-14-14-14-14v-72.8l4.6-17.9 4.6-17.9-4.8-19.2-4.7-19.2 4.7-37.5 4.6-37.5-5-20.3-5-20.2v-80h20v25.4z"/>
    <path d="M223.5 155.8c-16.2 5.6-28 18.7-31.4 35-1.4 6.6-1.5 66-.1 69.6 2.1 5.5 3.4 5.7 46.9 5.4l39.9-.3 2.6-2.4 2.6-2.4v-34.2c0-28.2-.3-35.1-1.6-39.6-4.3-14.6-15.9-26.5-30.5-31-7.9-2.5-21.4-2.5-28.4-.1zm22.6 17.7c6.7 2.4 11.3 5.8 14.7 11.1 1.8 2.6 3.2 5.1 3.2 5.6 0 .4-12 .8-26.6.8h-26.5l2.3-4.1c6.6-11.8 20.9-17.6 32.9-13.4zm19.9 55V247h-56v-37h56v18.5zM231.1 328.1c-7.5 1.5-16.8 6.5-23.2 12.5-7.2 6.9-12.4 16.6-11.4 21.2.9 4.3 4.6 7.4 9 7.4s6.9-2.1 10.1-8.3c6.8-13.4 23.4-18.7 37.2-11.8 8.6 4.3 13.4 10.6 15.2 20.1 1.8 9.5 4.6 8.8-34.5 8.8-24.5 0-35.2.3-37 1.2-5.2 2.4-5.5 4.1-5.5 37.3v30.7l2.9 2.9 2.9 2.9H237c42.1 0 44.7-.3 46.4-4.5.3-.9.6-14.2.6-29.5 0-21.6.3-29.2 1.5-33.7 6.5-25.1-9.2-50.8-34.7-56.8-6.9-1.6-12.9-1.7-19.7-.4zm34.7 87.6-.3 18.8-27.7.3-27.8.2v-38h56l-.2 18.7zM381.3 231.2c-1.1 1.3-2.4 3.3-2.7 4.5-.8 2.4 1.5 8.6 3.5 9.9.8.5 66.4 1.1 145.9 1.4l144.5.5 6.5 2.3c9.1 3.3 16.7 7.5 22 12.2l4.5 3.9-160.3.1c-112.9 0-160.9.3-162.4 1.1-2.6 1.4-5.1 7.4-4.2 10.2.3 1.2 1.6 3.2 2.7 4.4l2 2.3h167.3c132.5 0 167.4.3 168.2 1.2 1.4 1.9 66.4 131.9 66 132.2-.9.8-80.8 8.1-109.3 10.1-12.1.8-25.3 1.7-29.3 2.1l-7.3.6 5-9.9 5-10 17.8-1.2c36.2-2.5 61.1-5 63.1-6.2 4.9-3.1 5.5-9.8 1.3-14-3.5-3.5-2.2-3.4-31.6-.9-31.1 2.7-80.3 5.7-112.5 7-57.8 2.3-53 1.8-56.3 5.2-2.5 2.5-2.9 3.4-2.4 6.6.4 2.2 1.7 4.6 3.2 5.9 2.4 2.1 3.6 2.3 13.3 2.3 10.3 0 41.6-1.2 69-2.6l13.3-.7-4.7 9.6-4.8 9.5-7 .6c-38.5 3.2-152.2 4.2-199.9 1.7l-26.7-1.4-2.5 2.3c-1.3 1.2-2.7 3.5-3 5.1-.7 3.2 1.6 8.3 4.4 9.8 6 3.2 159.3 5 205.6 2.3 10.5-.5 19.1-.9 19.2-.8.2.1-.8 2.6-2.2 5.4-3 6.2-3.1 7.7-.5 11.9 1.3 2.2 2.9 3.4 5.3 3.8 6 1.2 8.6-1.1 14.1-12.3l4.9-10 9.1-.6c58.8-4 104.4-7.8 138.5-11.7 10.1-1.1 18.4-1.9 18.6-1.7.1.2 11.6 17.4 25.5 38.2 22.5 34 34.3 53.6 32.9 55-.2.3-5.4 1.2-11.4 2.1-28.9 4.2-56.5 14.3-77.4 28.3-10.2 6.8-25 21.2-31 30.1-6.4 9.4-12.6 23.4-15.2 33.9-1.8 7.6-2.6 9.3-4.3 9.7-6.3 1.3-68.8 5-112.6 6.6-40.7 1.5-162.7 1.5-202 0-32.8-1.3-79.6-3.7-89.7-4.7-5.7-.6-6.4-.4-8.7 1.9-3.6 3.6-3.7 10.4-.1 13.7 2.9 2.7 7 3.2 50 5.4 94.4 5 228 4.6 317-.9 62.2-3.9 111.2-9.7 153.5-18.1 15.4-3 36.6-8.2 41.3-10 1.6-.6 1.7 3.3 1.7 49.7v50.2l-8 31.4c-4.4 17.3-8 31.7-8 32 0 .8-111.4-.2-113.2-1.1-1.6-.7-1.8-2.6-1.8-17 0-10.2-.6-18.7-1.5-23.1-4.7-22.3-22.2-41.2-45.5-49.1-5.3-1.8-12.2-1.9-186.5-1.9h-181l-7.5 2.4c-9.4 3.1-13 6.4-13 11.9 0 3.3.6 4.5 3.1 6.6 3.9 3.3 5.7 3.3 13.8-.2l6.6-2.7 173.5-.3c123.6-.2 175.4 0 180 .8 17.4 3 31.9 15.5 37.2 32.3 2.2 6.8 3.9 33.9 2.1 35-.5.3-2.9-.3-5.3-1.4-7.1-3.2-21.4-6.7-34.3-8.4-17.7-2.3-333.7-2.3-351.4 0-6.5.9-13.3 2-15 2.6-6.8 2.2-8.5 9.9-3.4 15 3.4 3.3 3.6 3.4 15.6 1.2 8-1.5 26.5-1.7 170-2 110-.3 164.8-.1 173 .7 15.8 1.4 29.6 4.3 38.4 8 9.3 4 20.7 6.6 36.6 8.5 7.1.8 13.1 1.5 13.2 1.5.1 0 .3 12.3.5 27.2.3 26.4.4 27.5 2.6 31.8 3.2 6.1 6.7 9.7 12.7 12.8l5 2.7 33.3.3c37.6.3 40.6-.1 48-6.3 2.3-2 5.4-5.8 7-8.3l2.7-4.7.5-33 .5-33 9.3-36.2L884 726v-74.4c0-45.1-.4-78.5-1.1-84.7-2.9-29-10.9-50-29.8-78.7-5.6-8.4-10.1-15.4-10.1-15.6 0-.2 4.6-.5 10.3-.8 14.7-.7 21.9-4.7 27.5-15.3l2.7-5V425c0-25.4-.1-26.7-2.2-30.6-3.5-6.6-7-10.1-13.1-13.1-5-2.5-6.9-2.8-18.3-3.1-23.1-.8-35.6 3.3-46.6 15.1l-5.8 6.3-33-65.6c-21.1-41.8-34.7-67.7-37.7-71.5-12.2-15.9-28.5-26.7-47.2-31.5-7.8-2-10.8-2-152.1-2H383.3l-2 2.2zm479 167c4.5 2.3 4.6 3.2 4.7 26.9v22.6l-2.6 2.7c-2.7 2.6-2.8 2.6-17.8 2.6l-15.1-.1-10.3-15.4c-11.3-17-11.2-16.5-6.6-25.6 2.8-5.6 9.1-11.3 14.8-13.3 5.2-1.8 29.7-2.2 32.9-.4zm1.5 153c2.4 9.6 3.3 21.2 3 37.7l-.3 17.4-5.5 1.9c-19.5 6.6-61.2 14.7-101.9 19.8-23 2.8-21.3 3.1-19.5-3.3 11.9-41.3 55-70 115.9-77.1 7.3-.8 7.2-.8 8.3 3.6zM847 832.5c0 25-.6 29.2-4.8 31.4-1.4.7-12.9 1.1-33.4 1.1-35 0-34.9 0-36.8-6.8-1.1-4-1.4-47.4-.3-48.5.3-.4 17.4-.7 38-.7H847v23.5z"/>
    <path d="M381.5 396.3c-2.4 2-3 3.3-3 6.7 0 6.3 3.2 8.6 13.2 9.4 12.8 1.1 50 2.6 62.4 2.6 10.1 0 12-.3 14.2-2 3-2.4 4.2-6.6 2.8-10.3-2-5.2-3.3-5.5-36.1-6.6-16.8-.6-35-1.4-40.5-1.7-9.8-.7-10.2-.6-13 1.9zM796.5 683c-20.4 2.6-38.1 5.2-39.3 5.9-1.3.7-2.7 2.3-3.2 3.7-1.5 3.7-1.3 43 .2 45.7 1.8 3.4 4 4.6 8.1 4.7 4.2 0 75-8.7 78-9.6 1-.3 2.7-1.5 3.7-2.7 1.9-1.9 2-3.6 2-24.8v-22.7l-3.1-2.6c-2-1.7-4.2-2.6-6.2-2.5-1.8.1-19.9 2.3-40.2 4.9zm31.5 24.3v9.4l-28 3.4c-15.4 1.9-28.3 3.3-28.5 3-.5-.4-.7-18.1-.2-18.1 2.8-.6 52-6.8 54-6.9l2.7-.1v9.3z"/>
  </g>
</svg>
