<svg xmlns="http://www.w3.org/2000/svg" width="76" height="76">
  <switch>
    <g>
      <path fill="inherit" d="M58.255 29.469V9.58c0-.503-.299-.959-.76-1.16L38.49.103a1.268 1.268 0 0 0-1.014 0L18.473 8.42c-.461.201-.76.657-.76 1.16v19.887a13.953 13.953 0 0 0 5.777 11.284l13.134 9.471a2.32 2.32 0 0 0 2.719 0l13.134-9.47a13.946 13.946 0 0 0 5.778-11.283zm-7.26 9.229L37.984 48.08l-13.012-9.383a11.41 11.41 0 0 1-4.726-9.229v-19.06l17.737-7.763 17.737 7.763v19.06a11.409 11.409 0 0 1-4.725 9.23zm1.432-26.965-13.936-6.1a1.268 1.268 0 0 0-1.014 0l-13.936 6.1c-.461.202-.76.657-.76 1.161v16.575a8.868 8.868 0 0 0 3.674 7.175l10.788 7.78c.443.319 1.04.319 1.482 0l10.788-7.78a8.868 8.868 0 0 0 3.674-7.175V12.894c0-.504-.299-.959-.76-1.161zm-1.774 17.736a6.336 6.336 0 0 1-2.623 5.121l-10.047 7.246-10.047-7.246a6.336 6.336 0 0 1-2.623-5.121V13.721l12.669-5.544 12.67 5.544v15.748zm-19.004 31.33v-2.358c.039-3-.94-5.925-2.777-8.297a9.111 9.111 0 0 0-4.223-3.079 25.08 25.08 0 0 1-7.253-4.654 5.828 5.828 0 0 0-6.924-.36l-2.74-6.402a4.04 4.04 0 0 0-7.39 3.262l4.965 10.92a13.465 13.465 0 0 0 2.751 3.97l7.808 7.808a2.522 2.522 0 0 0-.687 1.723v10.134a2.534 2.534 0 0 0 2.534 2.533h13.936a2.534 2.534 0 0 0 2.534-2.533V63.332a2.534 2.534 0 0 0-2.534-2.533zm-21.8-8.789a10.947 10.947 0 0 1-2.236-3.226l-4.965-10.92a1.505 1.505 0 0 1 1.371-2.13c.603 0 1.147.359 1.384.913l2.834 6.608a14.961 14.961 0 0 0 3.195 4.719l5.787 5.788a1.267 1.267 0 1 0 1.791-1.791l-5.787-5.788a12.432 12.432 0 0 1-1.562-1.9 3.295 3.295 0 0 1 4.104.068 27.03 27.03 0 0 0 8.083 5.118 6.667 6.667 0 0 1 3.047 2.257 10.741 10.741 0 0 1 2.221 6.715v2.358H18.639l-8.79-8.789zm21.8 21.455H17.713V63.332h13.936v10.133zm-5.068-3.8h1.267a1.267 1.267 0 0 0 0-2.534h-1.267a1.267 1.267 0 1 0 0 2.534zm48.65-34.81a4.04 4.04 0 0 0-6.994.795l-2.734 6.378a5.843 5.843 0 0 0-6.931.38 25.059 25.059 0 0 1-7.253 4.654 9.12 9.12 0 0 0-4.223 3.08 13.267 13.267 0 0 0-2.777 8.301v2.358a2.534 2.534 0 0 0-2.534 2.533v10.134a2.533 2.533 0 0 0 2.534 2.533h13.937a2.534 2.534 0 0 0 2.534-2.533V63.332a2.517 2.517 0 0 0-.687-1.723l7.808-7.808a13.465 13.465 0 0 0 2.751-3.97l4.965-10.92a4.037 4.037 0 0 0-.396-4.056zm-16.976 38.61H44.318V63.332h13.937v10.133zm15.06-35.601-4.965 10.92a10.94 10.94 0 0 1-2.236 3.226l-8.785 8.788H46.852V58.44a10.75 10.75 0 0 1 2.221-6.713 6.667 6.667 0 0 1 3.041-2.259 26.983 26.983 0 0 0 8.084-5.118 3.295 3.295 0 0 1 4.111-.08 12.41 12.41 0 0 1-1.57 1.913l-5.787 5.788a1.268 1.268 0 0 0 1.791 1.791l5.787-5.788a14.933 14.933 0 0 0 3.195-4.719l2.834-6.61a1.504 1.504 0 0 1 2.65-.221c.279.433.318.974.106 1.44zM48.119 69.665h1.267a1.267 1.267 0 0 0 0-2.534h-1.267a1.267 1.267 0 1 0 0 2.534zM31.142 26.851a1.268 1.268 0 0 0-1.521 2.026l5.068 3.8a1.269 1.269 0 0 0 1.814-.31l10.137-15.2a1.268 1.268 0 0 0-2.108-1.407l-9.393 14.087-3.997-2.996z"/>
    </g>
  </switch>
</svg>
