<?xml version="1.0" standalone="no"?>
<!DOCTYPE svg PUBLIC "-//W3C//DTD SVG 20010904//EN"
 "http://www.w3.org/TR/2001/REC-SVG-20010904/DTD/svg10.dtd">
<svg version="1.0" xmlns="http://www.w3.org/2000/svg"
 width="1000.000000pt" height="998.000000pt" viewBox="0 0 1000.000000 998.000000"
 preserveAspectRatio="xMidYMid meet">

<g transform="translate(0.000000,998.000000) scale(0.100000,-0.100000)"
fill="#ff0000" stroke="none">
<path d="M1530 8809 c-170 -34 -328 -195 -360 -368 -15 -78 -14 -2923 1 -2993
29 -139 123 -260 253 -323 87 -43 163 -55 349 -55 l137 0 0 -419 0 -420 46
-191 46 -192 -46 -372 -47 -373 46 -184 46 -184 -45 -182 -46 -182 0 -393 c0
-358 2 -395 18 -420 34 -52 400 -407 426 -414 14 -3 36 -4 48 0 13 3 116 99
231 214 l207 208 0 406 0 406 -40 163 c-22 90 -40 178 -40 194 0 17 18 100 40
185 22 85 40 173 40 195 0 22 -20 196 -44 388 l-44 347 44 173 44 172 0 436 0
436 183 6 c145 4 195 9 244 25 150 48 265 165 307 313 15 50 16 207 14 1560
l-3 1504 -37 75 c-55 113 -153 201 -273 246 -47 18 -96 19 -875 21 -454 0
-845 -3 -870 -8z m1500 -929 l0 -750 -655 0 -655 0 0 750 0 750 655 0 655 0 0
-750z m-1492 -7 l-3 -738 -92 -3 -93 -3 0 643 0 643 24 50 c14 28 33 60 43 72
23 27 92 73 109 73 12 0 14 -119 12 -737z m1732 720 c49 -32 82 -69 108 -118
l27 -50 3 -647 3 -648 -96 0 -95 0 0 740 c0 795 -2 759 50 723z m-1732 -2480
c2 -696 0 -833 -11 -833 -21 0 -92 54 -121 92 -58 77 -56 43 -56 843 l0 736
93 -3 92 -3 3 -832z m1492 -8 l0 -845 -655 0 -655 0 0 845 0 845 655 0 655 0
0 -845z m380 127 c0 -779 1 -770 -55 -854 -23 -34 -105 -98 -127 -98 -4 0 -8
376 -8 835 l0 835 95 0 95 0 0 -718z m-1120 -1416 l0 -254 31 -26 c17 -14 39
-26 50 -26 29 0 77 27 89 49 6 12 10 116 10 265 l0 246 95 0 95 0 0 -417 0
-418 -47 -187 -48 -186 47 -375 46 -374 -44 -174 c-24 -96 -44 -189 -44 -207
0 -18 20 -113 45 -212 l45 -179 0 -348 0 -348 -140 -140 -140 -140 -140 140
-140 140 0 364 0 364 46 179 46 179 -48 192 -47 192 47 375 46 375 -50 203
-50 202 0 400 0 400 100 0 100 0 0 -254z"/>
<path d="M2235 8422 c-162 -56 -280 -187 -314 -350 -14 -66 -15 -660 -1 -696
21 -55 34 -57 469 -54 l399 3 26 24 26 24 0 342 c0 282 -3 351 -16 396 -43
146 -159 265 -305 310 -79 25 -214 25 -284 1z m226 -177 c67 -24 113 -58 147
-111 18 -26 32 -51 32 -56 0 -4 -120 -8 -266 -8 l-265 0 23 41 c66 118 209
176 329 134z m199 -550 l0 -185 -280 0 -280 0 0 185 0 185 280 0 280 0 0 -185z"/>
<path d="M2311 6699 c-75 -15 -168 -65 -232 -125 -72 -69 -124 -166 -114 -212
9 -43 46 -74 90 -74 44 0 69 21 101 83 68 134 234 187 372 118 86 -43 134
-106 152 -201 18 -95 46 -88 -345 -88 -245 0 -352 -3 -370 -12 -52 -24 -55
-41 -55 -373 l0 -307 29 -29 29 -29 402 0 c421 0 447 3 464 45 3 9 6 142 6
295 0 216 3 292 15 337 65 251 -92 508 -347 568 -69 16 -129 17 -197 4z m347
-876 l-3 -188 -277 -3 -278 -2 0 190 0 190 280 0 280 0 -2 -187z"/>
<path d="M3813 7668 c-11 -13 -24 -33 -27 -45 -8 -24 15 -86 35 -99 8 -5 664
-11 1459 -14 l1445 -5 65 -23 c91 -33 167 -75 220 -122 l45 -39 -1603 -1
c-1129 0 -1609 -3 -1624 -11 -26 -14 -51 -74 -42 -102 3 -12 16 -32 27 -44
l20 -23 1673 0 c1325 0 1674 -3 1682 -12 14 -19 664 -1319 660 -1322 -9 -8
-808 -81 -1093 -101 -121 -8 -253 -17 -293 -21 l-73 -6 50 99 50 100 178 12
c362 25 611 50 631 62 49 31 55 98 13 140 -35 35 -22 34 -316 9 -311 -27 -803
-57 -1125 -70 -578 -23 -530 -18 -563 -52 -25 -25 -29 -34 -24 -66 4 -22 17
-46 32 -59 24 -21 36 -23 133 -23 103 0 416 12 690 26 l133 7 -47 -96 -48 -95
-70 -6 c-385 -32 -1522 -42 -1999 -17 l-267 14 -25 -23 c-13 -12 -27 -35 -30
-51 -7 -32 16 -83 44 -98 60 -32 1593 -50 2056 -23 105 5 191 9 192 8 2 -1 -8
-26 -22 -54 -30 -62 -31 -77 -5 -119 13 -22 29 -34 53 -38 60 -12 86 11 141
123 l49 100 91 6 c588 40 1044 78 1385 117 101 11 184 19 186 17 1 -2 116
-174 255 -382 225 -340 343 -536 329 -550 -2 -3 -54 -12 -114 -21 -289 -42
-565 -143 -774 -283 -102 -68 -250 -212 -310 -301 -64 -94 -126 -234 -152
-339 -18 -76 -26 -93 -43 -97 -63 -13 -688 -50 -1126 -66 -407 -15 -1627 -15
-2020 0 -328 13 -796 37 -897 47 -57 6 -64 4 -87 -19 -36 -36 -37 -104 -1
-137 29 -27 70 -32 500 -54 944 -50 2280 -46 3170 9 622 39 1112 97 1535 181
154 30 366 82 413 100 16 6 17 -33 17 -497 l0 -502 -80 -314 c-44 -173 -80
-317 -80 -320 0 -8 -1114 2 -1132 11 -16 7 -18 26 -18 170 0 102 -6 187 -15
231 -47 223 -222 412 -455 491 -53 18 -122 19 -1865 19 l-1810 0 -75 -24 c-94
-31 -130 -64 -130 -119 0 -33 6 -45 31 -66 39 -33 57 -33 138 2 l66 27 1735 3
c1236 2 1754 0 1800 -8 174 -30 319 -155 372 -323 22 -68 39 -339 21 -350 -5
-3 -29 3 -53 14 -71 32 -214 67 -343 84 -177 23 -3337 23 -3514 0 -65 -9 -133
-20 -150 -26 -68 -22 -85 -99 -34 -150 34 -33 36 -34 156 -12 80 15 265 17
1700 20 1100 3 1648 1 1730 -7 158 -14 296 -43 384 -80 93 -40 207 -66 366
-85 71 -8 131 -15 132 -15 1 0 3 -123 5 -272 3 -264 4 -275 26 -318 32 -61 67
-97 127 -128 l50 -27 333 -3 c376 -3 406 1 480 63 23 20 54 58 70 83 l27 47 5
330 5 330 93 362 92 363 0 744 c0 451 -4 785 -11 847 -29 290 -109 500 -298
787 -56 84 -101 154 -101 156 0 2 46 5 103 8 147 7 219 47 275 153 l27 50 0
265 c0 254 -1 267 -22 306 -35 66 -70 101 -131 131 -50 25 -69 28 -183 31
-231 8 -356 -33 -466 -151 l-58 -63 -330 656 c-211 418 -347 677 -377 715
-122 159 -285 267 -472 315 -78 20 -108 20 -1521 20 l-1442 0 -20 -22z m4790
-1670 c45 -23 46 -32 47 -269 l0 -226 -26 -27 c-27 -26 -28 -26 -178 -26
l-151 1 -103 154 c-113 170 -112 165 -66 256 28 56 91 113 148 133 52 18 297
22 329 4z m15 -1530 c24 -96 33 -212 30 -377 l-3 -174 -55 -19 c-195 -66 -612
-147 -1019 -198 -230 -28 -213 -31 -195 33 119 413 550 700 1159 771 73 8 72
8 83 -36z m-148 -2813 c0 -250 -6 -292 -48 -314 -14 -7 -129 -11 -334 -11
-350 0 -349 0 -368 68 -11 40 -14 474 -3 485 3 4 174 7 380 7 l373 0 0 -235z"/>
<path d="M3815 6017 c-24 -20 -30 -33 -30 -67 0 -63 32 -86 132 -94 128 -11
500 -26 624 -26 101 0 120 3 142 20 30 24 42 66 28 103 -20 52 -33 55 -361 66
-168 6 -350 14 -405 17 -98 7 -102 6 -130 -19z"/>
<path d="M7965 3150 c-204 -26 -381 -52 -393 -59 -13 -7 -27 -23 -32 -37 -15
-37 -13 -430 2 -457 18 -34 40 -46 81 -47 42 0 750 87 780 96 10 3 27 15 37
27 19 19 20 36 20 248 l0 227 -31 26 c-20 17 -42 26 -62 25 -18 -1 -199 -23
-402 -49z m315 -243 l0 -94 -280 -34 c-154 -19 -283 -33 -285 -30 -5 4 -7 181
-2 181 28 6 520 68 540 69 l27 1 0 -93z"/>
</g>
</svg>
