<svg version="1.1" xmlns="http://www.w3.org/2000/svg" xmlns:xlink="http://www.w3.org/1999/xlink">
<defs>
<symbol id="icon-logo" viewBox="0 0 1000 998">
<g fill="inherit" stroke="inherit">
    <path d="M153 117.1c-17 3.4-32.8 19.5-36 36.8-1.5 7.8-1.4 292.3.1 299.3 2.9 13.9 12.3 26 25.3 32.3 8.7 4.3 16.3 5.5 34.9 5.5H191v83.9l4.6 19.1 4.6 19.2-4.6 37.2-4.7 37.3 4.6 18.4 4.6 18.4-4.5 18.2-4.6 18.2v39.3c0 35.8.2 39.5 1.8 42 3.4 5.2 40 40.7 42.6 41.4 1.4.3 3.6.4 4.8 0 1.3-.3 11.6-9.9 23.1-21.4l20.7-20.8v-81.2l-4-16.3c-2.2-9-4-17.8-4-19.4 0-1.7 1.8-10 4-18.5s4-17.3 4-19.5c0-2.2-2-19.6-4.4-38.8l-4.4-34.7 4.4-17.3 4.4-17.2v-87.2l18.3-.6c14.5-.4 19.5-.9 24.4-2.5 15-4.8 26.5-16.5 30.7-31.3 1.5-5 1.6-20.7 1.4-156l-.3-150.4-3.7-7.5c-5.5-11.3-15.3-20.1-27.3-24.6-4.7-1.8-9.6-1.9-87.5-2.1-45.4 0-84.5.3-87 .8zM303 210v75H172V135h131v75zm-149.2.7-.3 73.8-9.2.3-9.3.3V156.5l2.4-5c1.4-2.8 3.3-6 4.3-7.2 2.3-2.7 9.2-7.3 10.9-7.3 1.2 0 1.4 11.9 1.2 73.7zm173.2-72c4.9 3.2 8.2 6.9 10.8 11.8l2.7 5 .3 64.7.3 64.8H322v-74c0-79.5-.2-75.9 5-72.3zm-173.2 248c.2 69.6 0 83.3-1.1 83.3-2.1 0-9.2-5.4-12.1-9.2-5.8-7.7-5.6-4.3-5.6-84.3v-73.6l9.3.3 9.2.3.3 83.2zm149.2.8V472H172V303h131v84.5zm38-12.7c0 77.9.1 77-5.5 85.4-2.3 3.4-10.5 9.8-12.7 9.8-.4 0-.8-37.6-.8-83.5V303h19v71.8zM229 516.4v25.4l3.1 2.6c1.7 1.4 3.9 2.6 5 2.6 2.9 0 7.7-2.7 8.9-4.9.6-1.2 1-11.6 1-26.5V491h19v83.5l-4.7 18.7-4.8 18.6 4.7 37.5 4.6 37.4-4.4 17.4c-2.4 9.6-4.4 18.9-4.4 20.7 0 1.8 2 11.3 4.5 21.2l4.5 17.9v69.6l-14 14-14 14-14-14-14-14v-72.8l4.6-17.9 4.6-17.9-4.8-19.2-4.7-19.2 4.7-37.5 4.6-37.5-5-20.3-5-20.2v-80h20v25.4z"/>
    <path d="M223.5 155.8c-16.2 5.6-28 18.7-31.4 35-1.4 6.6-1.5 66-.1 69.6 2.1 5.5 3.4 5.7 46.9 5.4l39.9-.3 2.6-2.4 2.6-2.4v-34.2c0-28.2-.3-35.1-1.6-39.6-4.3-14.6-15.9-26.5-30.5-31-7.9-2.5-21.4-2.5-28.4-.1zm22.6 17.7c6.7 2.4 11.3 5.8 14.7 11.1 1.8 2.6 3.2 5.1 3.2 5.6 0 .4-12 .8-26.6.8h-26.5l2.3-4.1c6.6-11.8 20.9-17.6 32.9-13.4zm19.9 55V247h-56v-37h56v18.5zM231.1 328.1c-7.5 1.5-16.8 6.5-23.2 12.5-7.2 6.9-12.4 16.6-11.4 21.2.9 4.3 4.6 7.4 9 7.4s6.9-2.1 10.1-8.3c6.8-13.4 23.4-18.7 37.2-11.8 8.6 4.3 13.4 10.6 15.2 20.1 1.8 9.5 4.6 8.8-34.5 8.8-24.5 0-35.2.3-37 1.2-5.2 2.4-5.5 4.1-5.5 37.3v30.7l2.9 2.9 2.9 2.9H237c42.1 0 44.7-.3 46.4-4.5.3-.9.6-14.2.6-29.5 0-21.6.3-29.2 1.5-33.7 6.5-25.1-9.2-50.8-34.7-56.8-6.9-1.6-12.9-1.7-19.7-.4zm34.7 87.6-.3 18.8-27.7.3-27.8.2v-38h56l-.2 18.7zM381.3 231.2c-1.1 1.3-2.4 3.3-2.7 4.5-.8 2.4 1.5 8.6 3.5 9.9.8.5 66.4 1.1 145.9 1.4l144.5.5 6.5 2.3c9.1 3.3 16.7 7.5 22 12.2l4.5 3.9-160.3.1c-112.9 0-160.9.3-162.4 1.1-2.6 1.4-5.1 7.4-4.2 10.2.3 1.2 1.6 3.2 2.7 4.4l2 2.3h167.3c132.5 0 167.4.3 168.2 1.2 1.4 1.9 66.4 131.9 66 132.2-.9.8-80.8 8.1-109.3 10.1-12.1.8-25.3 1.7-29.3 2.1l-7.3.6 5-9.9 5-10 17.8-1.2c36.2-2.5 61.1-5 63.1-6.2 4.9-3.1 5.5-9.8 1.3-14-3.5-3.5-2.2-3.4-31.6-.9-31.1 2.7-80.3 5.7-112.5 7-57.8 2.3-53 1.8-56.3 5.2-2.5 2.5-2.9 3.4-2.4 6.6.4 2.2 1.7 4.6 3.2 5.9 2.4 2.1 3.6 2.3 13.3 2.3 10.3 0 41.6-1.2 69-2.6l13.3-.7-4.7 9.6-4.8 9.5-7 .6c-38.5 3.2-152.2 4.2-199.9 1.7l-26.7-1.4-2.5 2.3c-1.3 1.2-2.7 3.5-3 5.1-.7 3.2 1.6 8.3 4.4 9.8 6 3.2 159.3 5 205.6 2.3 10.5-.5 19.1-.9 19.2-.8.2.1-.8 2.6-2.2 5.4-3 6.2-3.1 7.7-.5 11.9 1.3 2.2 2.9 3.4 5.3 3.8 6 1.2 8.6-1.1 14.1-12.3l4.9-10 9.1-.6c58.8-4 104.4-7.8 138.5-11.7 10.1-1.1 18.4-1.9 18.6-1.7.1.2 11.6 17.4 25.5 38.2 22.5 34 34.3 53.6 32.9 55-.2.3-5.4 1.2-11.4 2.1-28.9 4.2-56.5 14.3-77.4 28.3-10.2 6.8-25 21.2-31 30.1-6.4 9.4-12.6 23.4-15.2 33.9-1.8 7.6-2.6 9.3-4.3 9.7-6.3 1.3-68.8 5-112.6 6.6-40.7 1.5-162.7 1.5-202 0-32.8-1.3-79.6-3.7-89.7-4.7-5.7-.6-6.4-.4-8.7 1.9-3.6 3.6-3.7 10.4-.1 13.7 2.9 2.7 7 3.2 50 5.4 94.4 5 228 4.6 317-.9 62.2-3.9 111.2-9.7 153.5-18.1 15.4-3 36.6-8.2 41.3-10 1.6-.6 1.7 3.3 1.7 49.7v50.2l-8 31.4c-4.4 17.3-8 31.7-8 32 0 .8-111.4-.2-113.2-1.1-1.6-.7-1.8-2.6-1.8-17 0-10.2-.6-18.7-1.5-23.1-4.7-22.3-22.2-41.2-45.5-49.1-5.3-1.8-12.2-1.9-186.5-1.9h-181l-7.5 2.4c-9.4 3.1-13 6.4-13 11.9 0 3.3.6 4.5 3.1 6.6 3.9 3.3 5.7 3.3 13.8-.2l6.6-2.7 173.5-.3c123.6-.2 175.4 0 180 .8 17.4 3 31.9 15.5 37.2 32.3 2.2 6.8 3.9 33.9 2.1 35-.5.3-2.9-.3-5.3-1.4-7.1-3.2-21.4-6.7-34.3-8.4-17.7-2.3-333.7-2.3-351.4 0-6.5.9-13.3 2-15 2.6-6.8 2.2-8.5 9.9-3.4 15 3.4 3.3 3.6 3.4 15.6 1.2 8-1.5 26.5-1.7 170-2 110-.3 164.8-.1 173 .7 15.8 1.4 29.6 4.3 38.4 8 9.3 4 20.7 6.6 36.6 8.5 7.1.8 13.1 1.5 13.2 1.5.1 0 .3 12.3.5 27.2.3 26.4.4 27.5 2.6 31.8 3.2 6.1 6.7 9.7 12.7 12.8l5 2.7 33.3.3c37.6.3 40.6-.1 48-6.3 2.3-2 5.4-5.8 7-8.3l2.7-4.7.5-33 .5-33 9.3-36.2L884 726v-74.4c0-45.1-.4-78.5-1.1-84.7-2.9-29-10.9-50-29.8-78.7-5.6-8.4-10.1-15.4-10.1-15.6 0-.2 4.6-.5 10.3-.8 14.7-.7 21.9-4.7 27.5-15.3l2.7-5V425c0-25.4-.1-26.7-2.2-30.6-3.5-6.6-7-10.1-13.1-13.1-5-2.5-6.9-2.8-18.3-3.1-23.1-.8-35.6 3.3-46.6 15.1l-5.8 6.3-33-65.6c-21.1-41.8-34.7-67.7-37.7-71.5-12.2-15.9-28.5-26.7-47.2-31.5-7.8-2-10.8-2-152.1-2H383.3l-2 2.2zm479 167c4.5 2.3 4.6 3.2 4.7 26.9v22.6l-2.6 2.7c-2.7 2.6-2.8 2.6-17.8 2.6l-15.1-.1-10.3-15.4c-11.3-17-11.2-16.5-6.6-25.6 2.8-5.6 9.1-11.3 14.8-13.3 5.2-1.8 29.7-2.2 32.9-.4zm1.5 153c2.4 9.6 3.3 21.2 3 37.7l-.3 17.4-5.5 1.9c-19.5 6.6-61.2 14.7-101.9 19.8-23 2.8-21.3 3.1-19.5-3.3 11.9-41.3 55-70 115.9-77.1 7.3-.8 7.2-.8 8.3 3.6zM847 832.5c0 25-.6 29.2-4.8 31.4-1.4.7-12.9 1.1-33.4 1.1-35 0-34.9 0-36.8-6.8-1.1-4-1.4-47.4-.3-48.5.3-.4 17.4-.7 38-.7H847v23.5z"/>
    <path d="M381.5 396.3c-2.4 2-3 3.3-3 6.7 0 6.3 3.2 8.6 13.2 9.4 12.8 1.1 50 2.6 62.4 2.6 10.1 0 12-.3 14.2-2 3-2.4 4.2-6.6 2.8-10.3-2-5.2-3.3-5.5-36.1-6.6-16.8-.6-35-1.4-40.5-1.7-9.8-.7-10.2-.6-13 1.9zM796.5 683c-20.4 2.6-38.1 5.2-39.3 5.9-1.3.7-2.7 2.3-3.2 3.7-1.5 3.7-1.3 43 .2 45.7 1.8 3.4 4 4.6 8.1 4.7 4.2 0 75-8.7 78-9.6 1-.3 2.7-1.5 3.7-2.7 1.9-1.9 2-3.6 2-24.8v-22.7l-3.1-2.6c-2-1.7-4.2-2.6-6.2-2.5-1.8.1-19.9 2.3-40.2 4.9zm31.5 24.3v9.4l-28 3.4c-15.4 1.9-28.3 3.3-28.5 3-.5-.4-.7-18.1-.2-18.1 2.8-.6 52-6.8 54-6.9l2.7-.1v9.3z"/>
  </g>
</symbol>
<symbol id="play-btn" width="120" height="120" viewBox="0 0 512 512">
<path d="M256 0C114.608 0 0 114.608 0 256s114.608 256 256 256 256-114.608 256-256S397.392 0 256 0zm0 496C123.664 496 16 388.336 16 256S123.664 16 256 16s240 107.664 240 240-107.664 240-240 240z"/>
<path d="M189.776 141.328v229.664L388.672 256.16z"/>
</symbol>
<symbol id="document" width="70" height="76" >
<switch>
    <g>
      <path fill="inherit" d="M53.484 43.192c-4.828 0-9.401 1.9-12.45 5.447-.508.506-.381 1.266.127 1.772.508.507 1.27.38 1.779-.126 2.541-3.04 6.352-4.687 10.418-4.687 7.749 0 13.975 6.207 13.975 13.934 0 7.727-6.225 13.933-13.975 13.933-6.322 0-11.885-4.304-13.615-10.134h5.992v-2.534h-7.471a1.108 1.108 0 0 0-.406 0h-2.287v10.134h2.541v-4.544c2.661 5.65 8.615 9.61 15.245 9.61 9.147 0 16.642-7.22 16.642-16.34.001-9.118-7.367-16.465-16.515-16.465zM7.622 7.599a2.544 2.544 0 0 0-2.541 2.533v58.267a2.544 2.544 0 0 0 2.541 2.533H31.76c.762 0 1.27-.506 1.27-1.267 0-.76-.508-1.266-1.27-1.266H7.622V10.132h12.704a2.544 2.544 0 0 0 2.541 2.533h17.786a2.545 2.545 0 0 0 2.541-2.533h12.704v29.134c0 .76.508 1.267 1.27 1.267s1.27-.507 1.27-1.267V10.132a2.544 2.544 0 0 0-2.541-2.533H43.194V5.066h16.515c.762 0 1.27.506 1.27 1.266v32.934c0 .76.508 1.267 1.27 1.267s1.27-.507 1.27-1.267V6.332c0-2.153-1.652-3.8-3.811-3.8H43.194a2.544 2.544 0 0 0-2.541-2.533H22.867a2.544 2.544 0 0 0-2.541 2.533H3.811C1.651 2.532 0 4.179 0 6.332v65.866c0 2.154 1.652 3.801 3.811 3.801H31.76c.762 0 1.27-.507 1.27-1.266s-.508-1.266-1.27-1.266H3.811c-.762 0-1.27-.507-1.27-1.267V6.332c0-.76.508-1.266 1.27-1.266h16.515v2.533H7.622zm15.245-5.067h17.786v7.6H22.867v-7.6zm23.338 23.941-4.917-6.84c-.762-1.14-2.033-1.773-3.43-1.773h-5.497a1.4 1.4 0 0 0-.601-.127c-.225 0-.426.045-.601.127h-5.497c-1.397 0-2.668.633-3.43 1.773l-4.916 6.84h-2.579a3.275 3.275 0 0 0-3.303 3.293v4.94c0 1.9 1.398 3.294 3.303 3.294h1.941a5.1 5.1 0 0 0 4.92 3.8 5.1 5.1 0 0 0 4.92-3.8h10.487a5.1 5.1 0 0 0 4.92 3.8 5.1 5.1 0 0 0 4.92-3.8h1.94c1.906 0 3.303-1.394 3.43-3.294v-4.94c0-1.901-1.524-3.293-3.303-3.293h-2.707zm-13.174-6.207h4.701c.635 0 1.144.253 1.398.633l3.975 5.573H33.031v-6.206zm-8.893.633c.381-.38.889-.633 1.398-.633h4.955v6.206H20.287l3.851-5.573zm-2.541 18.367a2.545 2.545 0 0 1-2.541-2.534 2.544 2.544 0 0 1 2.541-2.533 2.544 2.544 0 0 1 2.541 2.533 2.546 2.546 0 0 1-2.541 2.534zm20.327 0a2.545 2.545 0 0 1-2.541-2.534 2.544 2.544 0 0 1 2.541-2.533 2.544 2.544 0 0 1 2.541 2.533 2.546 2.546 0 0 1-2.541 2.534zm7.749-9.5v4.94c0 .38-.381.76-.762.76h-2.033c-.635-2.154-2.287-3.8-4.701-3.8l-.138.003c-.039-.001-.077-.003-.116-.003a5.1 5.1 0 0 0-4.92 3.8H26.679c-.635-2.154-2.541-3.8-4.955-3.8l-.069.002-.058-.002a5.1 5.1 0 0 0-4.92 3.8h-1.94c-.381 0-.762-.38-.762-.76v-4.94c0-.38.381-.76.762-.76h2.478c.169.08.358.127.571.127h27.949c.213 0 .403-.047.571-.127h2.605c.381-.001.762.379.762.76zM31.76 48.132H12.704c-.762 0-1.27.507-1.27 1.267 0 .76.508 1.266 1.27 1.266H31.76c.762 0 1.27-.506 1.27-1.266.001-.759-.507-1.267-1.27-1.267zm0 6.334H12.704c-.762 0-1.27.507-1.27 1.267 0 .76.508 1.266 1.27 1.266H31.76c.762 0 1.27-.507 1.27-1.266.001-.76-.507-1.267-1.27-1.267zm0 6.333H12.704c-.762 0-1.27.507-1.27 1.267s.508 1.267 1.27 1.267H31.76c.762 0 1.27-.507 1.27-1.267s-.507-1.267-1.27-1.267z"/>
    </g>
  </switch>
</symbol>
<symbol id="gear" width="76" height="76">
<switch>
    <g>
      <path fill="inherit" d="M73.387 36.366H69.52c-.608 0-1.195.138-1.727.388l-1.67-14.215a2.267 2.267 0 0 0 1.118-1.959 4.11 4.11 0 0 0-4.104-4.105h-37.16V6.365a6.373 6.373 0 0 0-6.366-6.366H6.366A6.373 6.373 0 0 0 0 6.365V19.61a6.373 6.373 0 0 0 6.366 6.366h7.114l-.314 2.678c-.005.027-.022.049-.025.078l-.926 8.023a4.056 4.056 0 0 0-1.727-.388H6.62a2.616 2.616 0 0 0-2.612 2.613v2.642a2.615 2.615 0 0 0 2.612 2.612h.87a8.093 8.093 0 0 0-.811 3.54v10.819a4.03 4.03 0 0 0 1.019 2.681 3.18 3.18 0 0 0-1.019 2.332v1.781a3.195 3.195 0 0 0 3.191 3.192h.668v4.527a2.899 2.899 0 0 0 2.895 2.895h5.641a2.899 2.899 0 0 0 2.895-2.895v-4.527h35.18v4.527a2.899 2.899 0 0 0 2.895 2.895h5.641a2.899 2.899 0 0 0 2.895-2.895v-4.527h1.559a3.194 3.194 0 0 0 3.191-3.192v-1.781a3.18 3.18 0 0 0-1.019-2.332 4.032 4.032 0 0 0 1.019-2.681v-10.82a8.096 8.096 0 0 0-.811-3.54h.87a2.615 2.615 0 0 0 2.612-2.612v-2.642a2.618 2.618 0 0 0-2.614-2.613zm-47.41-17.664h37.161a1.88 1.88 0 0 1 1.878 1.878c0 .006 0 .021-.015.036-.015.015-.03.015-.037.015H26.009a7.69 7.69 0 0 1-.033-.697v-1.232zm.388 9.889c.43 0 .853-.161 1.191-.472.566-.521.73-1.312.419-2.015l-1.331-3.011c-.034-.077-.065-.156-.096-.233H63.92l1.974 16.806a8.265 8.265 0 0 0-.707-.033h-4.913c-1.093-3.143-4.115-5.344-7.504-5.344-3.389 0-6.412 2.201-7.504 5.344H14.821c-.238 0-.474.013-.707.033l1.181-10.192c.005-.028.022-.051.025-.08l.401-3.417h3.408c1.301 0 2.592.329 3.735.951l2.649 1.444c.272.146.563.219.852.219zm36.047 13.268-1.264 1.679a1.38 1.38 0 0 1-1.098.547H19.957c-.429 0-.84-.204-1.098-.548l-1.264-1.679h44.817zM47.68 39.632c.961-1.866 2.921-3.117 5.09-3.117s4.129 1.251 5.09 3.117H47.68zM6.366 23.749a4.144 4.144 0 0 1-4.139-4.14V6.365a4.143 4.143 0 0 1 4.139-4.139h13.245a4.144 4.144 0 0 1 4.139 4.139v13.57a9.97 9.97 0 0 0 .857 4.058l.785 1.776-1.463-.797a10.06 10.06 0 0 0-4.8-1.222H6.366zm.254 18.258a.386.386 0 0 1-.386-.386v-2.642c0-.213.173-.386.386-.386h3.867c.562 0 1.086.258 1.43.688l-.109.931a8.15 8.15 0 0 0-2.728 1.795H6.62zm13.122 31.098c0 .369-.3.668-.668.668h-5.641a.67.67 0 0 1-.668-.668v-4.527h6.977v4.527zm46.61 0c0 .369-.3.668-.668.668h-5.641a.67.67 0 0 1-.668-.668v-4.527h6.977v4.527zm4.749-7.719a.966.966 0 0 1-.965.965H9.871a.966.966 0 0 1-.965-.965v-1.781c0-.533.433-.965.965-.965h60.266c.532 0 .965.432.965.965v1.781zm0-6.794a1.823 1.823 0 0 1-1.821 1.821H10.727a1.823 1.823 0 0 1-1.821-1.821V47.773a5.92 5.92 0 0 1 5.902-5.914l2.273 3.018a3.621 3.621 0 0 0 2.876 1.435h40.094c1.125 0 2.2-.537 2.876-1.435l2.273-3.019a5.923 5.923 0 0 1 5.902 5.915v10.819zm2.672-16.971a.386.386 0 0 1-.386.386h-2.459a8.18 8.18 0 0 0-2.728-1.795l-.109-.931a1.829 1.829 0 0 1 1.43-.688h3.867c.213 0 .386.173.386.386v2.642zm-55.86 5.73h-2.362a4.424 4.424 0 0 0-4.419 4.419v1.982a3.846 3.846 0 0 0 3.842 3.842h5.557a3.816 3.816 0 0 0 3.812-3.812 6.437 6.437 0 0 0-6.43-6.431zm2.619 8.015h-5.557a1.618 1.618 0 0 1-1.616-1.616v-1.982c0-1.208.983-2.192 2.192-2.192h2.362a4.209 4.209 0 0 1 4.204 4.204c0 .875-.711 1.586-1.585 1.586zm43.924-8.015h-2.362a6.437 6.437 0 0 0-6.43 6.43 3.816 3.816 0 0 0 3.812 3.812h5.557a3.846 3.846 0 0 0 3.842-3.842v-1.982a4.423 4.423 0 0 0-4.419-4.418zm2.192 6.4c0 .89-.725 1.616-1.616 1.616h-5.557a1.588 1.588 0 0 1-1.585-1.586 4.209 4.209 0 0 1 4.204-4.204h2.362c1.209 0 2.192.984 2.192 2.192v1.982zm-20.632-6.252H33.992a5.87 5.87 0 0 0-5.863 5.863 5.87 5.87 0 0 0 5.863 5.863h12.023a5.87 5.87 0 0 0 5.863-5.863 5.87 5.87 0 0 0-5.862-5.863zm0 9.501H33.992a3.642 3.642 0 0 1-3.637-3.637 3.64 3.64 0 0 1 3.637-3.636h12.023a3.64 3.64 0 0 1 3.637 3.636A3.64 3.64 0 0 1 46.016 57zM12.691 9.611a3.492 3.492 0 0 0-3.488 3.488 3.493 3.493 0 0 0 3.488 3.489 3.492 3.492 0 0 0 3.488-3.489 3.491 3.491 0 0 0-3.488-3.488zm0 4.75a1.263 1.263 0 0 1-1.262-1.262c0-.695.566-1.262 1.262-1.262s1.262.566 1.262 1.262c0 .695-.566 1.262-1.262 1.262zm7.512 1.85a3.66 3.66 0 0 0 1.765-3.112 3.656 3.656 0 0 0-1.765-3.111 3.657 3.657 0 0 0-.952-3.449 3.657 3.657 0 0 0-3.449-.952 3.657 3.657 0 0 0-3.111-1.765 3.66 3.66 0 0 0-3.112 1.765 3.657 3.657 0 0 0-3.448.952 3.66 3.66 0 0 0-.952 3.449 3.656 3.656 0 0 0-1.765 3.111 3.66 3.66 0 0 0 1.765 3.112 3.656 3.656 0 0 0 .952 3.448 3.653 3.653 0 0 0 3.448.952c.644 1.062 1.815 1.766 3.112 1.766s2.467-.704 3.111-1.766a3.657 3.657 0 0 0 3.449-.952 3.656 3.656 0 0 0 .952-3.448zm-2.39.042a1.415 1.415 0 0 1-.136 1.831 1.417 1.417 0 0 1-1.832.136 1.115 1.115 0 0 0-1.763.73 1.416 1.416 0 0 1-1.391 1.199A1.415 1.415 0 0 1 11.3 18.95a1.112 1.112 0 0 0-1.763-.73 1.415 1.415 0 0 1-1.831-.136 1.416 1.416 0 0 1-.136-1.832 1.113 1.113 0 0 0-.73-1.762 1.417 1.417 0 0 1-1.199-1.392c0-.69.515-1.289 1.199-1.391a1.116 1.116 0 0 0 .73-1.763 1.414 1.414 0 0 1 .136-1.831 1.417 1.417 0 0 1 1.832-.136 1.113 1.113 0 0 0 1.763-.73 1.414 1.414 0 0 1 1.39-1.199c.691 0 1.289.515 1.391 1.199a1.112 1.112 0 0 0 1.763.73 1.416 1.416 0 0 1 1.832.136c.489.488.547 1.276.136 1.831a1.113 1.113 0 0 0 .73 1.763 1.415 1.415 0 0 1 1.199 1.391c0 .691-.515 1.289-1.199 1.392a1.113 1.113 0 0 0-.73 1.763z"/>
    </g>
  </switch>
</symbol>
<symbol id="hand" width="70" height="78">
<switch>
    <g>
      <path fill="inherit" d="M35.921 42.567a1.244 1.244 0 0 0-.447-.015c-1.492-.171-2.618-1.41-2.62-2.885 0-.706-.583-1.279-1.303-1.279s-1.303.573-1.303 1.279c.004 2.462 1.681 4.619 4.099 5.27v1.28c0 .706.584 1.28 1.303 1.28s1.303-.573 1.303-1.28v-1.202c2.791-.573 4.688-3.125 4.395-5.909-.294-2.784-2.684-4.9-5.535-4.901-1.634 0-2.959-1.301-2.959-2.905 0-1.604 1.325-2.905 2.959-2.905s2.959 1.301 2.959 2.905c0 .706.583 1.28 1.303 1.28s1.303-.573 1.303-1.28c-.004-2.585-1.849-4.815-4.425-5.348v-1.165c0-.706-.584-1.28-1.303-1.28s-1.303.574-1.303 1.28v1.243c-2.689.72-4.42 3.284-4.05 5.997.37 2.713 2.728 4.737 5.516 4.736 1.613 0 2.928 1.267 2.957 2.85.029 1.582-1.238 2.897-2.849 2.954zm-.109 11.568c10.437 0 18.898-8.307 18.898-18.553S46.249 17.03 35.812 17.03c-10.432.01-18.886 8.31-18.898 18.552 0 10.247 8.461 18.553 18.898 18.553zm0-34.547c8.998 0 16.292 7.161 16.292 15.994S44.81 51.577 35.812 51.577 19.52 44.416 19.52 35.582c.011-8.829 7.299-15.984 16.292-15.994zm34.017 40.301c-1.726-3.006-5.553-4.151-8.694-2.6l-10.209 4.735c-1.41-2.573-4.113-4.212-7.089-4.294l-9.424-.255a10.114 10.114 0 0 1-4.283-1.085l-.959-.488a17.196 17.196 0 0 0-15.668.017l.06-2.133a1.29 1.29 0 0 0-1.267-1.314l-10.334-.28a1.292 1.292 0 0 0-1.338 1.244L0 75.699a1.29 1.29 0 0 0 1.267 1.314l10.334.28h.036c.706 0 1.284-.552 1.303-1.244l.03-1.066 2.685-1.411a4.68 4.68 0 0 1 3.437-.37l16.032 4.417a.811.811 0 0 0 .085.021 17.684 17.684 0 0 0 10.787-1.199 1.4 1.4 0 0 0 .162-.087l23.245-14.761a1.267 1.267 0 0 0 .426-1.704zm-59.46 14.812-7.728-.21.552-19.707 7.729.209-.553 19.708zm34.452-.545a15.034 15.034 0 0 1-9.036.99L19.796 70.74a7.321 7.321 0 0 0-5.372.576l-1.372.721.367-13.102a14.553 14.553 0 0 1 14.553-.762l.959.488a12.77 12.77 0 0 0 5.41 1.371l9.425.254c2.647.076 4.895 1.926 5.432 4.472l-14.039-.38a1.295 1.295 0 0 0-1.339 1.244 1.29 1.29 0 0 0 1.267 1.314l15.493.419h.036a1.293 1.293 0 0 0 1.302-1.245 7.962 7.962 0 0 0-.126-1.66l10.471-4.857.031-.014a4.04 4.04 0 0 1 4.503.619L44.821 74.156zm-9.009-59.444c.72 0 1.303-.573 1.303-1.279V1.278c0-.706-.584-1.28-1.303-1.28s-1.303.574-1.303 1.28v12.154c0 .707.584 1.28 1.303 1.28zm9.775 0c.72 0 1.303-.573 1.303-1.279V7.675c0-.706-.584-1.28-1.303-1.28-.72 0-1.303.573-1.303 1.28v5.757c0 .707.583 1.28 1.303 1.28zm-19.549 0c.72 0 1.303-.573 1.303-1.279V7.675c0-.706-.583-1.28-1.303-1.28s-1.303.573-1.303 1.28v5.757c0 .707.583 1.28 1.303 1.28z"/>
    </g>
  </switch>
</symbol>
<symbol id="headset" width="72" height="70">
<switch>
    <g>
      <path fill="inherit" d="M68.398 26.926V8.447c0-.666-.537-1.207-1.2-1.207h-10.86c-13.901-11.305-34.281-9.134-45.52 4.848A32.644 32.644 0 0 0 4.2 26.422 10.863 10.863 0 0 0 0 34.998v4.828c.008 5.588 4.224 10.261 9.753 10.809.628 2.586 3.221 4.17 5.791 3.539a4.814 4.814 0 0 0 3.655-4.692V25.344c.006-2.661-2.135-4.824-4.781-4.83a4.799 4.799 0 0 0-4.665 3.676c-.942.095-1.867.315-2.752.654C11.228 8.757 27.62-.839 43.615 3.412a29.883 29.883 0 0 1 8.613 3.828H35.999c-.663 0-1.2.54-1.2 1.207v19.311c0 .667.537 1.207 1.2 1.207h6.6l3.24 4.345a1.196 1.196 0 0 0 1.92 0l3.24-4.345h1.8v20.517c-.006 2.662 2.135 4.824 4.781 4.83a4.799 4.799 0 0 0 4.665-3.676 10.657 10.657 0 0 0 2.553-.58v3.047c-.007 5.996-4.838 10.854-10.8 10.862h-6v-1.207c0-.666-.537-1.206-1.2-1.206H41.54a4.738 4.738 0 0 0-3.142-1.207h-4.8c-2.651 0-4.8 2.161-4.8 4.828 0 2.666 2.149 4.827 4.8 4.827h4.8a4.747 4.747 0 0 0 3.142-1.207h5.258c.663 0 1.2-.54 1.2-1.207v-1.207h6c7.286-.008 13.191-5.947 13.2-13.276v-4.251a10.88 10.88 0 0 0 4.8-9.026v-4.828a10.82 10.82 0 0 0-3.6-8.072zM12 25.344c0-1.333 1.074-2.414 2.4-2.414s2.4 1.081 2.4 2.414v24.138c0 1.334-1.074 2.414-2.4 2.414s-2.4-1.08-2.4-2.414V25.344zm-2.4 1.292v21.552c-4.13-.605-7.195-4.165-7.2-8.362v-4.828c.005-4.197 3.07-7.756 7.2-8.362zm28.799 40.949h-4.8c-1.326 0-2.4-1.08-2.4-2.414a2.406 2.406 0 0 1 2.4-2.414h4.8c1.326 0 2.4 1.081 2.4 2.414a2.407 2.407 0 0 1-2.4 2.414zm7.2-1.207h-2.57a4.364 4.364 0 0 0 0-2.414h2.57v2.414zm14.399-16.897a2.406 2.406 0 0 1-2.4 2.414c-1.326 0-2.4-1.08-2.4-2.414V28.964h4.8v20.517zm-9.599-22.93c-.378 0-.733.179-.96.483l-2.64 3.539-2.64-3.539a1.198 1.198 0 0 0-.96-.483h-6V9.654h28.799v16.897H50.399zm19.199 13.275c-.005 4.196-3.071 7.753-7.2 8.352V28.964h4.672a8.43 8.43 0 0 1 2.528 6.034v4.828zM45.49 12.068h-2.303v2.414h2.303v-2.414zm2.509 2.414h15.6v-2.414h-15.6v2.414zm-8.4 4.827h23.999v-2.414H39.599v2.414zm0 4.828h23.999v-2.414H39.599v2.414z"/>
    </g>
  </switch>
</symbol>
<symbol id="insurance" width="76" height="76">
<switch>
    <g>
      <path fill="inherit" d="M58.255 29.469V9.58c0-.503-.299-.959-.76-1.16L38.49.103a1.268 1.268 0 0 0-1.014 0L18.473 8.42c-.461.201-.76.657-.76 1.16v19.887a13.953 13.953 0 0 0 5.777 11.284l13.134 9.471a2.32 2.32 0 0 0 2.719 0l13.134-9.47a13.946 13.946 0 0 0 5.778-11.283zm-7.26 9.229L37.984 48.08l-13.012-9.383a11.41 11.41 0 0 1-4.726-9.229v-19.06l17.737-7.763 17.737 7.763v19.06a11.409 11.409 0 0 1-4.725 9.23zm1.432-26.965-13.936-6.1a1.268 1.268 0 0 0-1.014 0l-13.936 6.1c-.461.202-.76.657-.76 1.161v16.575a8.868 8.868 0 0 0 3.674 7.175l10.788 7.78c.443.319 1.04.319 1.482 0l10.788-7.78a8.868 8.868 0 0 0 3.674-7.175V12.894c0-.504-.299-.959-.76-1.161zm-1.774 17.736a6.336 6.336 0 0 1-2.623 5.121l-10.047 7.246-10.047-7.246a6.336 6.336 0 0 1-2.623-5.121V13.721l12.669-5.544 12.67 5.544v15.748zm-19.004 31.33v-2.358c.039-3-.94-5.925-2.777-8.297a9.111 9.111 0 0 0-4.223-3.079 25.08 25.08 0 0 1-7.253-4.654 5.828 5.828 0 0 0-6.924-.36l-2.74-6.402a4.04 4.04 0 0 0-7.39 3.262l4.965 10.92a13.465 13.465 0 0 0 2.751 3.97l7.808 7.808a2.522 2.522 0 0 0-.687 1.723v10.134a2.534 2.534 0 0 0 2.534 2.533h13.936a2.534 2.534 0 0 0 2.534-2.533V63.332a2.534 2.534 0 0 0-2.534-2.533zm-21.8-8.789a10.947 10.947 0 0 1-2.236-3.226l-4.965-10.92a1.505 1.505 0 0 1 1.371-2.13c.603 0 1.147.359 1.384.913l2.834 6.608a14.961 14.961 0 0 0 3.195 4.719l5.787 5.788a1.267 1.267 0 1 0 1.791-1.791l-5.787-5.788a12.432 12.432 0 0 1-1.562-1.9 3.295 3.295 0 0 1 4.104.068 27.03 27.03 0 0 0 8.083 5.118 6.667 6.667 0 0 1 3.047 2.257 10.741 10.741 0 0 1 2.221 6.715v2.358H18.639l-8.79-8.789zm21.8 21.455H17.713V63.332h13.936v10.133zm-5.068-3.8h1.267a1.267 1.267 0 0 0 0-2.534h-1.267a1.267 1.267 0 1 0 0 2.534zm48.65-34.81a4.04 4.04 0 0 0-6.994.795l-2.734 6.378a5.843 5.843 0 0 0-6.931.38 25.059 25.059 0 0 1-7.253 4.654 9.12 9.12 0 0 0-4.223 3.08 13.267 13.267 0 0 0-2.777 8.301v2.358a2.534 2.534 0 0 0-2.534 2.533v10.134a2.533 2.533 0 0 0 2.534 2.533h13.937a2.534 2.534 0 0 0 2.534-2.533V63.332a2.517 2.517 0 0 0-.687-1.723l7.808-7.808a13.465 13.465 0 0 0 2.751-3.97l4.965-10.92a4.037 4.037 0 0 0-.396-4.056zm-16.976 38.61H44.318V63.332h13.937v10.133zm15.06-35.601-4.965 10.92a10.94 10.94 0 0 1-2.236 3.226l-8.785 8.788H46.852V58.44a10.75 10.75 0 0 1 2.221-6.713 6.667 6.667 0 0 1 3.041-2.259 26.983 26.983 0 0 0 8.084-5.118 3.295 3.295 0 0 1 4.111-.08 12.41 12.41 0 0 1-1.57 1.913l-5.787 5.788a1.268 1.268 0 0 0 1.791 1.791l5.787-5.788a14.933 14.933 0 0 0 3.195-4.719l2.834-6.61a1.504 1.504 0 0 1 2.65-.221c.279.433.318.974.106 1.44zM48.119 69.665h1.267a1.267 1.267 0 0 0 0-2.534h-1.267a1.267 1.267 0 1 0 0 2.534zM31.142 26.851a1.268 1.268 0 0 0-1.521 2.026l5.068 3.8a1.269 1.269 0 0 0 1.814-.31l10.137-15.2a1.268 1.268 0 0 0-2.108-1.407l-9.393 14.087-3.997-2.996z"/>
    </g>
  </switch>
</symbol>
<symbol id="key" width="67" height="76">
<switch>
    <g>
      <path fill="inherit" d="M31.606 27.758v16.573c0 .337.133.658.37.896l5.057 5.067a1.264 1.264 0 0 0 1.788 0l5.057-5.067c.237-.238.37-.56.37-.896v-3.275l2.158-2.162a1.269 1.269 0 0 0 0-1.792l-1.635-1.638 1.635-1.638a1.267 1.267 0 0 0 0-1.791l-2.158-2.162v-2.117a7.606 7.606 0 0 0 6.321-7.493V7.599c-.005-4.195-3.398-7.595-7.585-7.6H32.87c-4.187.005-7.581 3.405-7.585 7.6v12.667a7.606 7.606 0 0 0 6.321 7.492zm10.484 8.603 1.635 1.638-1.635 1.638c-.237.237-.37.56-.37.896v3.275l-2.529 2.533V30.399h-2.528v15.942l-2.528-2.533V27.866h7.585V30.4c0 .336.133.658.37.896l1.635 1.637-1.635 1.637a1.267 1.267 0 0 0 0 1.791zM27.813 7.599a5.067 5.067 0 0 1 5.057-5.066h10.114a5.067 5.067 0 0 1 5.057 5.066v12.667a5.067 5.067 0 0 1-5.057 5.067H32.87a5.067 5.067 0 0 1-5.057-5.067V7.599zm3.793 5.067h12.642c.698 0 1.264-.567 1.264-1.267V8.866a3.8 3.8 0 0 0-3.793-3.8h-7.585a3.8 3.8 0 0 0-3.793 3.8v2.533c.001.7.567 1.267 1.265 1.267zm1.264-3.8a1.267 1.267 0 0 1 1.264-1.267h7.585a1.267 1.267 0 0 1 1.264 1.267v1.267H32.87V8.866zm1.264 13.933h7.585a3.8 3.8 0 0 0 3.793-3.8v-2.533c0-.7-.566-1.267-1.264-1.267H31.606c-.698 0-1.264.568-1.264 1.267v2.533a3.8 3.8 0 0 0 3.792 3.8zm-1.264-5.066h10.114v1.266a1.267 1.267 0 0 1-1.264 1.267h-7.585a1.267 1.267 0 0 1-1.264-1.267v-1.266zm31.606 38.338a4.157 4.157 0 0 0-4.813 1.126 4.163 4.163 0 0 0-6.335-.005 4.15 4.15 0 0 0-5.44-.776 3.8 3.8 0 0 0-2.159-.683H38.79a9.768 9.768 0 0 0-7.739-3.801h-2.263a9.745 9.745 0 0 0-6.642 2.614 1.245 1.245 0 0 0-.439-.08h-8.85c0-.699-.566-1.267-1.264-1.267H1.264c-.698 0-1.264.567-1.264 1.267v20.266c0 .7.566 1.266 1.264 1.266h20.442c.698 0 1.264-.567 1.264-1.266v-1.073l16.258 2.328a1.377 1.377 0 0 0 .336.003l17.786-2.23a6.255 6.255 0 0 0 4.633-3.011l2.541-4.231c.03-.049.056-.101.079-.153l2.06-4.812a4.178 4.178 0 0 0-2.187-5.482zM10.327 73.465H2.528V55.733h7.799v17.732zm10.114 0h-7.585V56.999h7.585v16.466zm33.558-11.893c.017-.038.034-.08.051-.127l.934-2.185a1.64 1.64 0 0 1 3.148.649c0 .223-.045.442-.133.647l-1.729 4.042h-3.568l1.297-3.026zm-4.479 1.76v-3.8a3.78 3.78 0 0 0-.151-1.056 1.625 1.625 0 0 1 2.152.512c.308.442.373 1.009.174 1.509-.013.032-.022.063-.032.096l-1.714 4.005h-1.694a1.264 1.264 0 0 0 1.265-1.266zm14.818-2.779-2.027 4.734-2.497 4.157a3.745 3.745 0 0 1-2.777 1.802l-17.62 2.209L22.971 71.1V57.4a7.236 7.236 0 0 1 5.816-2.934h2.263a7.249 7.249 0 0 1 6.041 3.237c.235.352.629.563 1.051.563h7.585c.43.002.83.223 1.062.586.132.202.202.439.203.681v2.533H32.87V64.6h10.76l-.33.767a1.267 1.267 0 0 0 1.162 1.766h12.655c.505 0 .962-.301 1.162-.766l3.047-7.107a1.638 1.638 0 1 1 3.012 1.293z"/>
    </g>
  </switch>
</symbol>
<symbol id="mers" width="78" height="72.041">
<switch>
    <g>
      <path fill="inherit" d="M34.735 9.776a4.273 4.273 0 0 0-.001-8.545c-2.352 0-4.266 1.917-4.266 4.273s1.915 4.272 4.267 4.272zm0-6.104a1.831 1.831 0 0 1 0 3.662 1.831 1.831 0 0 1 0-3.662zM17.672 65.234a1.13 1.13 0 0 0 1.13-1.131 1.13 1.13 0 1 0-2.259 0 1.13 1.13 0 0 0 1.129 1.131zM75.619 4.545 68.092.572a4.875 4.875 0 0 0-4.558 0l-7.527 3.973c-1.469.775-2.381 2.269-2.381 3.9v8.656h-29.25a1.22 1.22 0 0 0-1.219 1.221v.592a5.312 5.312 0 0 0-4.139 3.557l-2.883 8.664a17.255 17.255 0 0 0-.885 5.465 9.016 9.016 0 0 1-3.134 6.843l-.907-1.376a1.217 1.217 0 0 0-1.613-.393L.624 46.702a1.219 1.219 0 0 0-.433 1.72l14.625 23.052a1.215 1.215 0 0 0 1.029.566c.255 0 .505-.08.713-.231l8.702-6.292a1.225 1.225 0 0 0 .305-1.663l-.585-.888c2.334-1.779 4.334-1.856 4.414-1.858.131 0 .261-.021.386-.063 8.251-2.755 10.722-8.594 11.405-10.981H70.69a1.22 1.22 0 0 0 1.219-1.221V24.171a24.13 24.13 0 0 0 5.139-4.46A4 4 0 0 0 78 17.097V8.446c0-1.632-.913-3.126-2.381-3.901zM16.18 69.07 2.939 48.202l6.859-3.844 13.086 19.864-6.704 4.848zm12.982-10.393c-.72.05-3.012.379-5.53 2.248L13.458 45.482a11.44 11.44 0 0 0 4.228-8.881c0-1.599.256-3.177.759-4.692l2.883-8.664a2.866 2.866 0 0 1 5.202-.534 2.88 2.88 0 0 1 .242 2.35L23.39 35.227c-.131.393-.055.826.203 1.149l.753.943c2.372 2.97 2.032 7.419.495 10.373l-.041.068c-.359.594-.671 1.109-1.116 1.556a1.223 1.223 0 0 0 .862 2.084c.312 0 .624-.119.862-.358.318-.319.58-.647.812-.976h12.399c-.804 2.199-3.127 6.442-9.457 8.611zm40.307-11.054H27.551c1.439-3.639 1.444-8.393-1.3-11.83l-.339-.424 2.421-7.279h5.792c.674 0 1.219-.546 1.219-1.22a1.22 1.22 0 0 0-1.219-1.221h-5.001c.118-.401.18-.81.202-1.221h10.893a1.22 1.22 0 0 0 0-2.442H29.25c-.126 0-.242.036-.356.072-.083-.192-.149-.389-.254-.571-.482-.831-1.189-1.481-2.008-1.941h27.829c.042.053.074.114.119.166 2.583 2.992 5.88 5.307 9.797 6.882a3.881 3.881 0 0 0 2.87 0 28.073 28.073 0 0 0 2.221-1.018v22.047zm5.734-29.51c-2.327 2.694-5.308 4.784-8.862 6.213a1.44 1.44 0 0 1-1.057 0c-3.554-1.429-6.535-3.519-8.862-6.213a1.55 1.55 0 0 1-.36-1.016V8.446c0-.722.414-1.388 1.079-1.74l7.527-3.973a2.449 2.449 0 0 1 2.288 0l7.527 3.973c.665.352 1.08 1.018 1.08 1.74v8.651c0 .387-.128.746-.36 1.016zM71.334 7.52a1.215 1.215 0 0 0-1.679.389l-5.282 8.465-2.573-2.577a1.216 1.216 0 0 0-1.723 0 1.223 1.223 0 0 0 0 1.727l3.656 3.662a1.219 1.219 0 0 0 1.895-.216l6.094-9.766a1.225 1.225 0 0 0-.388-1.684zM47.531 25.647c-4.704 0-8.531 3.834-8.531 8.546 0 4.711 3.827 8.546 8.531 8.546 4.704 0 8.531-3.834 8.531-8.546.001-4.712-3.827-8.546-8.531-8.546zm-6.093 8.546a6.112 6.112 0 0 1 4.875-5.981v5.371l-4.273 3.21a6.044 6.044 0 0 1-.602-2.6zm6.093 6.104c-1.548 0-2.948-.599-4.024-1.556l4.063-3.051 4.231 2.847a6.062 6.062 0 0 1-4.27 1.76zm5.632-3.785-4.412-2.969v-5.33a6.111 6.111 0 0 1 4.875 5.981 6.09 6.09 0 0 1-.463 2.318zm6.556-3.54h4.875a1.22 1.22 0 0 0 1.219-1.221 1.22 1.22 0 0 0-1.219-1.221h-4.875a1.22 1.22 0 0 0-1.219 1.221 1.22 1.22 0 0 0 1.219 1.221zm0 3.663h4.875a1.22 1.22 0 0 0 1.219-1.221 1.22 1.22 0 0 0-1.219-1.221h-4.875a1.22 1.22 0 0 0-1.219 1.221 1.22 1.22 0 0 0 1.219 1.221zm6.094 6.104h-8.531a1.22 1.22 0 0 0-1.219 1.221 1.22 1.22 0 0 0 1.219 1.221h8.531a1.221 1.221 0 0 0 0-2.442zm-19.5-32.963a1.22 1.22 0 0 0 1.219-1.221 1.22 1.22 0 1 0-2.438 0 1.22 1.22 0 0 0 1.219 1.221zm2.437 45.737a1.22 1.22 0 0 0-1.219 1.221v1.727a1.22 1.22 0 1 0 2.438 0v-1.727a1.22 1.22 0 0 0-1.219-1.221zm0 6.909c-.674 0-1.219.546-1.219 1.22v1.728a1.22 1.22 0 1 0 2.438 0v-1.728c0-.674-.545-1.22-1.219-1.22zm-2.586-2.591H44.44c-.674 0-1.219.547-1.219 1.221s.545 1.221 1.219 1.221h1.725a1.22 1.22 0 0 0-.001-2.442zm6.897 0h-1.725c-.674 0-1.219.547-1.219 1.221s.545 1.221 1.219 1.221h1.725c.674 0 1.219-.547 1.219-1.221s-.545-1.221-1.219-1.221z"/>
    </g>
  </switch>
</symbol>
<symbol id="heart" width="18" height="16">
<path stroke="inherit" stroke-linecap="round" stroke-linejoin="round" stroke-opacity=".8" stroke-width="1.5" d="M15.63 2.458a4.124 4.124 0 0 0-5.835 0L9 3.252l-.795-.794A4.126 4.126 0 0 0 2.37 8.293l.795.795L9 14.922l5.835-5.835.795-.795a4.124 4.124 0 0 0 0-5.835Z"/>
</symbol>
</defs>
</svg>
 
